# xmcd
# 
# Track frame offsets:
#     150
#     22006
#     36711
#     55466
#     71028
#     83210
#     94947
#     111373
#     123202
#     138615
# 
# Disc length: 2009
# 
# Revision: 0
# Processed by: cddbd v1.5.2PL0 Copyright (c) Steve Scherf et al.
# Submitted via: fre:ac v1.0.17
# 
DISCID=9807d70a
DTITLE=Various Artist - Country Hits of the 80s and 90s CD1
DYEAR=2015
DGENRE=Country
TTITLE0=Restless Heart (Live) - When She Cries
TTITLE1=Juice Newton - Queen Of Hearts
TTITLE2=Alabama - I Want To Be With You Tonight
TTITLE3=Asleep At The Wheel (Live) - Take Me Back To Tulsa
TTITLE4=Willie Nelson - Shelter Of My Arms
TTITLE5=Lee Greenwood (Live) - God Bless The USA
TTITLE6=Tanya Tucker (Live) - Little Things
TTITLE7=Holly Dunn - There Goes My Heart Again
TTITLE8=Blackhawk - Goodbye Says It All
TTITLE9=Alabama - Loving You Is Killing Me
EXTD=
EXTT0=
EXTT1=
EXTT2=
EXTT3=
EXTT4=
EXTT5=
EXTT6=
EXTT7=
EXTT8=
EXTT9=
PLAYORDER=
